<?xml version="1.0" encoding="utf-8"?>
<!-- Generator: Adobe Illustrator 28.3.0, SVG Export Plug-In . SVG Version: 6.00 Build 0)  -->
<svg version="1.1" id="Capa_1" xmlns="http://www.w3.org/2000/svg" xmlns:xlink="http://www.w3.org/1999/xlink" x="0px" y="0px"
	 viewBox="0 0 510 510" style="enable-background:new 0 0 510 510;" xml:space="preserve">
<style type="text/css">
	.st0{display:none;}
	.st1{display:inline;fill:#009FE3;stroke:#1A9DD9;stroke-width:2;stroke-miterlimit:10;}
	.st2{display:inline;fill:none;stroke:#FFFFFF;stroke-width:2;stroke-miterlimit:10;}
	.st3{display:inline;}
	.st4{fill:#FFED00;}
	.st5{fill:#312783;}
	.st6{fill:#E30613;}
	.st7{fill:#009640;}
	.st8{display:inline;fill:none;stroke:#FFFFFF;stroke-width:5;stroke-miterlimit:10;}
	.st9{fill:#FFFFFF;}
	.st10{fill:#009FE3;}
	.st11{display:inline;fill:none;}
	.st12{display:inline;fill:#FFFFFF;}
	.st13{clip-path:url(#SVGID_00000006688891807122432940000009607020002149986703_);}
	.st14{clip-path:url(#SVGID_00000105394107566148971580000012381637185484270491_);fill:#FFFFFF;}
	
		.st15{clip-path:url(#SVGID_00000105394107566148971580000012381637185484270491_);fill:none;stroke:#1B9DD9;stroke-width:4.2179;stroke-miterlimit:10;}
	.st16{clip-path:url(#SVGID_00000105394107566148971580000012381637185484270491_);fill:#FFED00;}
	.st17{clip-path:url(#SVGID_00000105394107566148971580000012381637185484270491_);fill:#312783;}
	.st18{clip-path:url(#SVGID_00000105394107566148971580000012381637185484270491_);fill:#E30613;}
	.st19{clip-path:url(#SVGID_00000105394107566148971580000012381637185484270491_);fill:#009640;}
	.st20{clip-path:url(#SVGID_00000105394107566148971580000012381637185484270491_);fill:#1B9DD9;}
	.st21{fill:#1B9DD9;}
	.st22{font-family:'Elephant-Regular';}
	.st23{font-size:43.2533px;}
	.st24{font-size:43.2532px;}
	.st25{font-size:43.2531px;}
	.st26{font-size:43.2534px;}
	.st27{font-size:43.253px;}
	.st28{clip-path:url(#SVGID_00000089572317351575310900000012124595384384463012_);fill:#1B9DD9;}
</style>
<g class="st0">
	<circle class="st1" cx="255" cy="255" r="248.91"/>
	<circle class="st2" cx="255" cy="258.71" r="176.81"/>
	<g class="st3">
		<path class="st4" d="M322.43,208.92c-1.64,0.68-4.09,1.23-6.64,1.46v9.13c3.85-0.37,6.81-1.18,8.29-1.91L322.43,208.92z"/>
		<path class="st4" d="M293.94,194.54c0-10.87,6.84-16.18,15.56-16.18c3.95,0,7.09,0.87,9.29,1.84l2.25-8.74
			c-1.92-1.05-6.29-2.17-12.04-2.17c-14.76,0-26.71,9.23-26.71,25.9c0,11.92,6.39,21.38,18.83,23.87v-10.52
			C296.51,205.97,293.94,201.07,293.94,194.54z"/>
		<path class="st4" d="M338.28,237.07c0.05,0.8,0.09,1.6,0.13,2.41c0.25-0.19,0.49-0.37,0.73-0.57c0.07-0.06,0.14-0.13,0.21-0.19
			c-0.27-0.56-0.54-1.12-0.8-1.68L338.28,237.07z"/>
		<path class="st5" d="M317.84,236.61c-1.35,0-2.89-0.01-3.86-0.19V219.5v-9.13v-5.98c0.98-0.22,2.6-0.42,5.02-0.42
			c9.51,0,15.45,5.34,15.43,15.5c0,1.73-0.15,3.32-0.43,4.79l9.53,0.06l3.45,5.44c1.14-3.04,0.35-6.58,0.35-10.72
			c0-8.64-4.39-14.55-9.47-18.34c-4.68-3.54-10.75-5.25-20.02-5.25c-5.54,0-10.84,0.39-14.91,1.05v12.01v10.52v25.48
			c2.72,0.38,6.81,0.72,12.56,0.72c3.94,0,7.59-0.36,10.89-1.07v-9.29C323.97,236.07,321.09,236.64,317.84,236.61z"/>
		<path class="st6" d="M362.1,259.46c-2.34-5.06-5.22-10.47-8.16-15.08l-7.8-12.33l-3.55-5.61h-6.78h-7.62v10.64v9.29v28.98h11.34
			v-14.7c0-7-0.12-13.19-0.41-18.97c-0.04-0.81-0.08-1.62-0.13-2.41l0.27-0.02c0.26,0.56,0.52,1.12,0.8,1.68
			c2.55,5.26,5.75,10.83,8.7,15.6l5.22,8.39C356.24,262.59,358.98,260.77,362.1,259.46z"/>
		<path class="st6" d="M362.75,277.43l0.28,0.45h12.94v-9.16C369.88,269.17,364.96,272.04,362.75,277.43z"/>
		<path class="st6" d="M375.24,226.44H363.9v14.26c0,6.64,0.19,12.61,0.78,18.45c3.18-1.23,6.74-1.94,10.56-2.11V226.44z"/>
		<path class="st7" d="M373.66,279.8v8.63h7.56v10.28c-0.88,0.4-2.91,0.69-5.41,0.69c-9.05,0-15.43-5.91-15.43-16.01
			c0-2.7,0.45-5.04,1.28-7.05c2.22-5.38,7.13-8.26,13.22-8.71c0.57-0.04,1.14-0.06,1.73-0.06c5.38,0,8.67,0.91,11.38,2.08l2.31-8.86
			c-2.42-1.15-7.28-2.35-13.6-2.35c-0.62,0-1.22,0.02-1.83,0.05c-3.82,0.17-7.38,0.88-10.56,2.11c-0.26,0.1-0.51,0.21-0.77,0.32
			c-3.13,1.31-5.87,3.14-8.11,5.44c-4.18,4.28-6.64,10.22-6.67,17.6c-0.03,7.19,2.43,13.55,6.92,17.8
			c4.5,4.32,10.94,6.56,19.88,6.56c6.45,0,12.9-1.56,16.33-2.75V279.8H373.66z"/>
	</g>
	<polygon class="st8" points="143.07,350.8 143.07,166.06 214.59,166.06 366.93,351.36 	"/>
	<g class="st3">
		<path class="st9" d="M159.64,274.96c0.29-2.02,0.53-4.05,0.89-6.05c1.32-7.23,3.96-13.94,8.11-20.04
			c5.6-8.22,12.97-14.26,22.14-18.13c4.39-1.85,8.86-3.31,13.63-3.62c3.77-0.24,7.61-0.87,11.29-0.39c4.8,0.63,9.59,1.87,14.19,3.42
			c4.4,1.49,8.41,3.94,12.16,6.76c5.86,4.41,10.55,9.82,13.98,16.28c5.01,9.44,7.08,19.45,5.86,30.16
			c-1.03,8.99-4.18,17.11-9.41,24.41c-5.58,7.8-12.97,13.4-21.81,17.08c-7.68,3.2-15.72,4.53-23.97,3.77
			c-9.83-0.91-18.81-4.28-26.75-10.28c-5.95-4.49-10.68-10.02-14.15-16.59c-2.14-4.05-3.87-8.29-4.68-12.84
			c-0.39-2.21-0.65-4.43-1-6.65c-0.11-0.7-0.33-1.38-0.5-2.07C159.64,278.46,159.64,276.71,159.64,274.96z M205.49,306.78
			c0-0.01,0-0.02,0-0.03c3.03,0,6.06-0.09,9.08,0.04c1.46,0.06,2.19-0.54,2.88-1.69c2.84-4.73,5.8-9.39,8.62-14.13
			c0.32-0.53,0.34-1.53,0.05-2.07c-0.83-1.57-1.9-3.02-2.86-4.52c-2.53-3.91-5.03-7.85-7.61-11.73c-0.28-0.41-0.98-0.74-1.51-0.76
			c-5.79-0.25-11.59-0.39-17.38-0.65c-1.12-0.05-1.69,0.43-2.17,1.28c-3.08,5.43-6.18,10.84-9.23,16.29
			c-0.23,0.41-0.38,1.11-0.18,1.47c2.93,5.21,5.9,10.4,8.93,15.55c0.28,0.48,1.09,0.89,1.66,0.91
			C199.02,306.82,202.26,306.78,205.49,306.78z M236.34,288.82c0-0.04,0-0.08,0-0.12c2.36,0,4.73-0.06,7.08,0.03
			c1.22,0.05,1.76-0.59,2.17-1.54c2.31-5.36,4.63-10.72,6.89-16.1c0.21-0.49,0.25-1.28-0.01-1.71c-3.25-5.51-6.58-10.98-9.86-16.47
			c-0.47-0.78-1.02-1.08-1.97-1.04c-5.28,0.22-10.57,0.35-15.85,0.59c-0.46,0.02-1.14,0.5-1.31,0.94
			c-2.2,5.46-4.36,10.94-6.45,16.45c-0.21,0.55-0.13,1.44,0.18,1.94c3.36,5.36,6.8,10.68,10.22,16.01c0.46,0.73,1,1.11,1.97,1.06
			C231.72,288.76,234.03,288.82,236.34,288.82z M172.93,252.47c-0.31,0.67-0.41,0.96-0.56,1.22c-2.81,5-5.62,10.01-8.46,14.99
			c-0.48,0.84-0.68,1.58-0.3,2.57c1.94,5.01,3.78,10.05,5.72,15.06c0.16,0.41,0.75,0.89,1.17,0.93c4.03,0.37,8.08,0.65,12.12,0.95
			c0.67,0.05,1.12,0,1.56-0.79c3.05-5.44,6.23-10.82,9.31-16.24c0.23-0.41,0.24-1.1,0.09-1.57c-1.79-5.34-3.63-10.66-5.44-16
			c-0.29-0.85-0.76-1.15-1.69-1.14C181.93,252.5,177.42,252.47,172.93,252.47z M241.64,250.41c0.07-0.68,0.16-1.08,0.16-1.48
			c-0.01-3.03-0.09-6.06-0.01-9.08c0.03-1.01-0.38-1.52-1.1-2.05c-4.13-3.02-8.6-5.4-13.46-7c-3.66-1.2-7.29-2.71-11.3-1.77
			c-1.34,0.31-2.68,0.74-4.04,0.82c-2.5,0.15-2.91,0.85-3.22,3.51c-0.22,1.93-0.44,3.86-0.84,5.75c-0.25,1.16,0.32,1.71,1.1,2.2
			c4.33,2.73,8.69,5.4,13,8.16c1.44,0.93,2.88,1.4,4.62,1.23c2.09-0.2,4.2-0.26,6.3-0.29C235.76,250.38,238.67,250.41,241.64,250.41
			z M227.42,318.04c-3.59-3.16-6.89-6.1-10.25-8.97c-0.51-0.44-1.31-0.75-1.98-0.76c-6.26-0.03-12.52,0.04-18.78,0.01
			c-1.1-0.01-1.83,0.38-2.49,1.16c-1.7,2.02-3.42,4.02-5.13,6.02c-0.54,0.63-0.71,1.06,0.12,1.73c2.57,2.07,5.13,4.16,7.51,6.44
			c1.86,1.78,4.02,2.87,6.46,2.97c5,0.21,10.02,0.1,15.04,0.1c0.33,0,0.74-0.11,0.97-0.32C221.7,323.68,224.49,320.92,227.42,318.04
			z M173.55,251.01c0.61,0,1.27,0.01,1.93,0c3.75-0.07,7.5-0.1,11.24-0.23c0.83-0.03,1.76-0.21,2.46-0.62
			c5.47-3.19,10.9-6.45,16.32-9.72c0.3-0.18,0.61-0.57,0.65-0.91c0.38-2.74,0.73-5.48,1.02-8.23c0.04-0.37-0.19-1.05-0.43-1.12
			c-1.65-0.47-3.36-1.21-5.01-1.11c-2.08,0.12-4.14,0.87-6.16,1.51c-8.34,2.65-15.47,7.22-21.36,13.71
			c-0.29,0.32-0.62,0.74-0.64,1.12C173.51,247.19,173.55,248.97,173.55,251.01z M260.81,276.76c-0.11-1.31-0.32-3.51-0.47-5.7
			c-0.06-0.86-0.4-1.17-1.28-1.03c-1.11,0.17-2.26,0.13-3.35,0.36c-0.53,0.11-1.21,0.53-1.42,0.99c-2.57,5.7-5.1,11.41-7.54,17.16
			c-0.38,0.89-0.45,2-0.36,2.97c0.31,3.21,0.89,6.39,1.14,9.6c0.3,3.88,0.42,2.83,3.43,3.72c0.14,0.04,0.33-0.02,0.45,0.05
			c0.87,0.48,1.21-0.04,1.64-0.72C258.13,296.07,260.67,287.22,260.81,276.76z M251.08,306.6c-0.89-0.24-1.69-0.42-2.46-0.66
			c-1-0.31-1.84-0.13-2.7,0.51c-4.68,3.48-9.48,6.82-14.08,10.41c-3.47,2.71-6.71,5.73-10.06,8.61
			C229.36,326.12,249.21,313.05,251.08,306.6z M162.02,271.75c-0.14,0.01-0.28,0.03-0.41,0.04c-0.14,1.82-0.4,3.65-0.37,5.47
			c0.03,2.03,0.34,4.06,0.52,6.09c0.66,7.44,3.2,14.24,7.13,20.54c0.2,0.32,0.83,0.59,1.17,0.51c0.31-0.07,0.71-0.69,0.68-1.03
			c-0.12-1.36-0.4-2.71-0.62-4.07c-0.56-3.43-0.74-6.99-1.77-10.28C166.51,283.19,164.16,277.5,162.02,271.75z M170.94,305.72
			c-0.14,0.24-0.28,0.48-0.42,0.72c5.96,8.4,13.89,14.25,23.7,17.66c-2.68-2.38-5.51-4.56-8.29-6.81
			c-4.37-3.53-8.7-7.12-13.08-10.64C172.32,306.2,171.59,306.02,170.94,305.72z"/>
		<path class="st10" d="M205.49,306.78c-3.23,0-6.47,0.04-9.7-0.04c-0.57-0.02-1.38-0.43-1.66-0.91
			c-3.04-5.15-6.01-10.34-8.93-15.55c-0.2-0.35-0.05-1.06,0.18-1.47c3.05-5.44,6.15-10.86,9.23-16.29c0.48-0.85,1.05-1.33,2.17-1.28
			c5.79,0.26,11.59,0.41,17.38,0.65c0.52,0.02,1.23,0.35,1.51,0.76c2.58,3.88,5.08,7.81,7.61,11.73c0.97,1.5,2.03,2.95,2.86,4.52
			c0.29,0.54,0.27,1.54-0.05,2.07c-2.82,4.74-5.78,9.4-8.62,14.13c-0.69,1.15-1.42,1.76-2.88,1.69c-3.02-0.13-6.06-0.04-9.08-0.04
			C205.49,306.76,205.49,306.77,205.49,306.78z"/>
		<path class="st10" d="M236.34,288.82c-2.31,0-4.62-0.07-6.93,0.03c-0.97,0.04-1.5-0.34-1.97-1.06
			c-3.41-5.33-6.85-10.65-10.22-16.01c-0.31-0.5-0.39-1.38-0.18-1.94c2.09-5.51,4.24-10.99,6.45-16.45
			c0.17-0.43,0.85-0.92,1.31-0.94c5.28-0.24,10.56-0.36,15.85-0.59c0.94-0.04,1.5,0.26,1.97,1.04c3.28,5.49,6.61,10.96,9.86,16.47
			c0.25,0.43,0.21,1.22,0.01,1.71c-2.26,5.38-4.58,10.74-6.89,16.1c-0.41,0.95-0.95,1.59-2.17,1.54c-2.36-0.09-4.72-0.03-7.08-0.03
			C236.34,288.74,236.34,288.78,236.34,288.82z"/>
		<path class="st10" d="M172.93,252.47c4.49,0,9,0.03,13.52-0.03c0.94-0.01,1.4,0.29,1.69,1.14c1.81,5.33,3.66,10.66,5.44,16
			c0.16,0.47,0.15,1.16-0.09,1.57c-3.09,5.42-6.26,10.8-9.31,16.24c-0.44,0.79-0.9,0.84-1.56,0.79c-4.04-0.3-8.08-0.58-12.12-0.95
			c-0.43-0.04-1.01-0.52-1.17-0.93c-1.94-5.01-3.79-10.05-5.72-15.06c-0.38-0.98-0.17-1.73,0.3-2.57c2.84-4.99,5.64-9.99,8.46-14.99
			C172.52,253.42,172.62,253.14,172.93,252.47z"/>
		<path class="st10" d="M241.64,250.41c-2.97,0-5.88-0.03-8.79,0.01c-2.1,0.03-4.21,0.09-6.3,0.29c-1.73,0.17-3.17-0.3-4.62-1.23
			c-4.3-2.77-8.67-5.44-13-8.16c-0.78-0.49-1.35-1.05-1.1-2.2c0.4-1.89,0.62-3.83,0.84-5.75c0.31-2.65,0.72-3.36,3.22-3.51
			c1.36-0.08,2.7-0.51,4.04-0.82c4.01-0.93,7.64,0.57,11.3,1.77c4.86,1.6,9.33,3.98,13.46,7c0.72,0.53,1.13,1.04,1.1,2.05
			c-0.08,3.02,0,6.05,0.01,9.08C241.79,249.33,241.71,249.73,241.64,250.41z"/>
		<path class="st10" d="M227.42,318.04c-2.93,2.88-5.72,5.64-8.54,8.37c-0.22,0.22-0.64,0.32-0.97,0.32
			c-5.01,0-10.03,0.11-15.04-0.1c-2.43-0.1-4.6-1.19-6.46-2.97c-2.38-2.28-4.94-4.37-7.51-6.44c-0.83-0.67-0.66-1.1-0.12-1.73
			c1.72-2,3.43-4.01,5.13-6.02c0.66-0.78,1.39-1.17,2.49-1.16c6.26,0.04,12.52-0.04,18.78-0.01c0.67,0,1.47,0.32,1.98,0.76
			C220.54,311.94,223.84,314.89,227.42,318.04z"/>
		<path class="st10" d="M173.55,251.01c0-2.03-0.04-3.82,0.03-5.6c0.01-0.38,0.35-0.81,0.64-1.12c5.89-6.48,13.02-11.05,21.36-13.71
			c2.02-0.64,4.08-1.39,6.16-1.51c1.65-0.1,3.36,0.64,5.01,1.11c0.24,0.07,0.47,0.75,0.43,1.12c-0.29,2.75-0.64,5.49-1.02,8.23
			c-0.05,0.33-0.35,0.73-0.65,0.91c-5.42,3.27-10.85,6.53-16.32,9.72c-0.71,0.41-1.63,0.59-2.46,0.62
			c-3.75,0.13-7.49,0.17-11.24,0.23C174.82,251.02,174.16,251.01,173.55,251.01z"/>
		<path class="st10" d="M260.81,276.76c-0.14,10.46-2.67,19.3-7.77,27.41c-0.43,0.68-0.76,1.2-1.64,0.72
			c-0.12-0.07-0.31-0.01-0.45-0.05c-3.01-0.89-3.13,0.16-3.43-3.72c-0.25-3.21-0.83-6.39-1.14-9.6c-0.1-0.98-0.02-2.08,0.36-2.97
			c2.44-5.75,4.97-11.47,7.54-17.16c0.21-0.46,0.89-0.88,1.42-0.99c1.09-0.23,2.24-0.19,3.35-0.36c0.88-0.13,1.22,0.17,1.28,1.03
			C260.49,273.26,260.7,275.45,260.81,276.76z"/>
		<path class="st10" d="M251.08,306.6c-1.87,6.45-21.72,19.52-29.3,18.86c3.34-2.88,6.58-5.89,10.06-8.61
			c4.6-3.59,9.4-6.93,14.08-10.41c0.86-0.64,1.69-0.82,2.7-0.51C249.39,306.18,250.19,306.36,251.08,306.6z"/>
		<path class="st10" d="M162.02,271.75c2.14,5.75,4.49,11.43,6.33,17.28c1.03,3.29,1.21,6.84,1.77,10.28
			c0.22,1.35,0.5,2.7,0.62,4.07c0.03,0.34-0.37,0.96-0.68,1.03c-0.34,0.08-0.98-0.2-1.17-0.51c-3.93-6.3-6.47-13.09-7.13-20.54
			c-0.18-2.03-0.48-4.06-0.52-6.09c-0.03-1.82,0.24-3.64,0.37-5.47C161.74,271.78,161.88,271.77,162.02,271.75z"/>
		<path class="st10" d="M170.94,305.72c0.64,0.3,1.38,0.48,1.92,0.92c4.38,3.52,8.71,7.11,13.08,10.64
			c2.78,2.25,5.61,4.43,8.29,6.81c-9.81-3.41-17.74-9.26-23.7-17.66C170.66,306.2,170.8,305.96,170.94,305.72z"/>
	</g>
	<path id="SVGID_x5F_1_x5F_" class="st11" d="M450.17,255c0,107.79-87.38,195.17-195.17,195.17S59.83,362.79,59.83,255
		S147.21,59.83,255,59.83S450.17,147.21,450.17,255z"/>
	<text class="st3">	<textPath  xlink:href="#SVGID_x5F_1_x5F_" startOffset="584.8307%">
<tspan  class="st22" style="fill:#FFFFFF;stroke:#312783;stroke-width:0.25;stroke-miterlimit:10; font-size:43.8269px;">CLUB DEPORTIVO NUEVA GRANADA</tspan>	</textPath>
</text>
	<circle class="st12" cx="161.86" cy="446.87" r="11.67"/>
	<circle class="st12" cx="255" cy="466.52" r="11.67"/>
	<circle class="st12" cx="345.92" cy="446.87" r="11.67"/>
</g>
<g>
	<g>
		<defs>
			<rect id="SVGID_00000131345943719813830160000013411475606622463675_" x="-0.38" y="-0.1" width="508.82" height="508.26"/>
		</defs>
		<clipPath id="SVGID_00000129910085208065166520000011021217823540603803_">
			<use xlink:href="#SVGID_00000131345943719813830160000013411475606622463675_"  style="overflow:visible;"/>
		</clipPath>
		<g style="clip-path:url(#SVGID_00000129910085208065166520000011021217823540603803_);">
			<defs>
				<rect id="SVGID_00000038382900450492065510000012783953459583498895_" x="-0.38" y="-0.1" width="508.82" height="508.26"/>
			</defs>
			<clipPath id="SVGID_00000036211717970459564490000006637600625999924891_">
				<use xlink:href="#SVGID_00000038382900450492065510000012783953459583498895_"  style="overflow:visible;"/>
			</clipPath>
			<path style="clip-path:url(#SVGID_00000036211717970459564490000006637600625999924891_);fill:#FFFFFF;" d="M499.68,254.03
				c0,135.67-109.98,245.66-245.65,245.66c-135.67,0-245.66-109.98-245.66-245.66S118.36,8.38,254.03,8.38
				C389.7,8.38,499.68,118.36,499.68,254.03"/>
			
				<path style="clip-path:url(#SVGID_00000036211717970459564490000006637600625999924891_);fill:none;stroke:#1B9DD9;stroke-width:4.2179;stroke-miterlimit:10;" d="
				M499.68,254.03c0,135.67-109.98,245.66-245.65,245.66c-135.67,0-245.66-109.98-245.66-245.66S118.36,8.38,254.03,8.38
				C389.7,8.38,499.68,118.36,499.68,254.03z"/>
			
				<path style="clip-path:url(#SVGID_00000036211717970459564490000006637600625999924891_);fill:none;stroke:#1B9DD9;stroke-width:4.2179;stroke-miterlimit:10;" d="
				M428.52,257.69c0,96.37-78.12,174.5-174.49,174.5s-174.5-78.12-174.5-174.5s78.12-174.5,174.5-174.5S428.52,161.32,428.52,257.69
				z"/>
			<path style="clip-path:url(#SVGID_00000036211717970459564490000006637600625999924891_);fill:#FFED00;" d="M320.58,208.55
				c-1.62,0.67-4.04,1.21-6.55,1.44V219c3.8-0.36,6.72-1.17,8.18-1.89L320.58,208.55z"/>
			<path style="clip-path:url(#SVGID_00000036211717970459564490000006637600625999924891_);fill:#FFED00;" d="M292.46,194.36
				c0-10.72,6.75-15.97,15.36-15.97c3.89,0,6.99,0.86,9.16,1.81l2.23-8.63c-1.89-1.03-6.2-2.14-11.88-2.14
				c-14.57,0-26.36,9.11-26.36,25.56c0,11.77,6.31,21.1,18.59,23.56v-10.38C294.99,205.65,292.46,200.8,292.46,194.36"/>
			<path style="clip-path:url(#SVGID_00000036211717970459564490000006637600625999924891_);fill:#FFED00;" d="M336.22,236.34
				c0.05,0.79,0.09,1.58,0.13,2.38c0.24-0.18,0.49-0.36,0.72-0.56c0.07-0.06,0.14-0.13,0.21-0.19c-0.27-0.56-0.54-1.11-0.79-1.66
				L336.22,236.34z"/>
			<path style="clip-path:url(#SVGID_00000036211717970459564490000006637600625999924891_);fill:#312783;" d="M316.04,235.88
				c-1.33,0-2.86-0.01-3.8-0.19V219v-9.01v-5.91c0.96-0.22,2.57-0.42,4.95-0.42c9.38,0,15.26,5.27,15.24,15.3
				c0,1.71-0.15,3.28-0.43,4.72l9.41,0.06l3.4,5.37c1.13-3,0.35-6.49,0.35-10.57c0-8.53-4.33-14.36-9.34-18.1
				c-4.62-3.49-10.6-5.18-19.76-5.18c-5.47,0-10.7,0.39-14.71,1.04v11.86v10.38v25.15c2.68,0.37,6.72,0.71,12.39,0.71
				c3.89,0,7.49-0.35,10.75-1.05v-9.17C322.1,235.35,319.25,235.91,316.04,235.88"/>
			<path style="clip-path:url(#SVGID_00000036211717970459564490000006637600625999924891_);fill:#E30613;" d="M359.73,258.43
				c-2.31-4.99-5.15-10.34-8.05-14.89l-7.69-12.17l-3.5-5.53h-6.69h-7.52v10.5v9.17v28.6h11.2v-14.51c0-6.91-0.12-13.01-0.4-18.72
				c-0.04-0.8-0.08-1.59-0.13-2.38l0.27-0.02c0.25,0.55,0.51,1.1,0.79,1.66c2.51,5.19,5.67,10.69,8.58,15.4l5.15,8.28
				C353.94,261.52,356.65,259.73,359.73,258.43"/>
			<path style="clip-path:url(#SVGID_00000036211717970459564490000006637600625999924891_);fill:#E30613;" d="M360.37,276.17
				l0.27,0.44h12.78v-9.03C367.41,268.02,362.55,270.85,360.37,276.17"/>
			<path style="clip-path:url(#SVGID_00000036211717970459564490000006637600625999924891_);fill:#E30613;" d="M372.7,225.84H361.5
				v14.07c0,6.55,0.19,12.45,0.77,18.2c3.14-1.21,6.65-1.91,10.42-2.08V225.84z"/>
			<path style="clip-path:url(#SVGID_00000036211717970459564490000006637600625999924891_);fill:#009640;" d="M371.14,278.51v8.52
				h7.46v10.14c-0.87,0.39-2.87,0.68-5.34,0.68c-8.93,0-15.22-5.83-15.22-15.8c0-2.67,0.44-4.98,1.25-6.96
				c2.19-5.31,7.04-8.15,13.05-8.6c0.56-0.04,1.13-0.06,1.71-0.06c5.31,0,8.56,0.89,11.23,2.05l2.28-8.74
				c-2.39-1.13-7.19-2.32-13.42-2.32c-0.61,0-1.21,0.02-1.81,0.05c-3.77,0.17-7.28,0.87-10.42,2.08c-0.25,0.1-0.5,0.2-0.75,0.31
				c-3.09,1.29-5.79,3.09-8.01,5.37c-4.12,4.23-6.55,10.08-6.58,17.37c-0.03,7.09,2.4,13.38,6.83,17.57
				c4.44,4.26,10.8,6.47,19.62,6.47c6.36,0,12.74-1.54,16.12-2.71v-25.42H371.14z"/>
			
				<polygon style="clip-path:url(#SVGID_00000036211717970459564490000006637600625999924891_);fill:none;stroke:#1B9DD9;stroke-width:4.2179;stroke-miterlimit:10;" points="
				143.56,348.58 143.56,166.26 214.15,166.26 364.5,349.13 			"/>
			<path style="clip-path:url(#SVGID_00000036211717970459564490000006637600625999924891_);fill:#1B9DD9;" d="M159.92,273.73
				c0.29-1.99,0.52-3.99,0.88-5.97c1.3-7.14,3.91-13.76,8-19.77c5.53-8.12,12.8-14.07,21.85-17.89c4.33-1.83,8.74-3.27,13.46-3.58
				c3.71-0.24,7.51-0.86,11.14-0.38c4.74,0.62,9.47,1.84,14.01,3.37c4.34,1.47,8.3,3.89,12,6.68c5.78,4.36,10.42,9.69,13.8,16.07
				c4.94,9.32,6.99,19.2,5.78,29.77c-1.01,8.87-4.13,16.88-9.28,24.09c-5.51,7.7-12.81,13.22-21.52,16.86
				c-7.58,3.15-15.51,4.48-23.66,3.72c-9.7-0.9-18.56-4.23-26.4-10.14c-5.87-4.43-10.54-9.89-13.96-16.37
				c-2.11-4-3.82-8.18-4.62-12.67c-0.39-2.18-0.64-4.37-0.98-6.56c-0.11-0.69-0.32-1.37-0.49-2.05V273.73z M205.17,305.13v-0.03
				c2.99,0,5.98-0.09,8.97,0.04c1.44,0.06,2.16-0.53,2.85-1.67c2.81-4.67,5.72-9.27,8.51-13.94c0.31-0.52,0.33-1.51,0.05-2.04
				c-0.83-1.55-1.87-2.98-2.83-4.46c-2.49-3.86-4.96-7.74-7.51-11.57c-0.27-0.41-0.97-0.73-1.48-0.75
				c-5.72-0.24-11.43-0.39-17.15-0.65c-1.11-0.05-1.67,0.43-2.14,1.27c-3.04,5.35-6.09,10.71-9.11,16.07
				c-0.22,0.4-0.37,1.1-0.18,1.45c2.89,5.15,5.82,10.27,8.82,15.34c0.28,0.47,1.08,0.89,1.64,0.9
				C198.78,305.18,201.98,305.13,205.17,305.13 M235.61,287.41v-0.12c2.33,0,4.67-0.06,6.99,0.03c1.21,0.05,1.74-0.58,2.14-1.52
				c2.27-5.29,4.56-10.58,6.8-15.89c0.2-0.49,0.24-1.26,0-1.68c-3.21-5.44-6.49-10.83-9.73-16.25c-0.46-0.77-1.01-1.06-1.94-1.02
				c-5.21,0.22-10.43,0.35-15.64,0.58c-0.46,0.02-1.13,0.5-1.3,0.92c-2.17,5.39-4.3,10.8-6.36,16.23c-0.21,0.55-0.13,1.42,0.17,1.91
				c3.32,5.29,6.71,10.54,10.09,15.8c0.46,0.72,0.98,1.09,1.94,1.05C231.05,287.35,233.34,287.41,235.61,287.41 M173.03,251.54
				c-0.3,0.66-0.41,0.94-0.55,1.2c-2.78,4.94-5.55,9.88-8.35,14.8c-0.47,0.83-0.67,1.56-0.3,2.54c1.91,4.94,3.73,9.92,5.65,14.86
				c0.16,0.4,0.73,0.88,1.16,0.92c3.98,0.36,7.97,0.64,11.96,0.93c0.66,0.05,1.11,0,1.54-0.77c3.01-5.38,6.15-10.68,9.19-16.03
				c0.23-0.41,0.24-1.09,0.08-1.55c-1.76-5.27-3.59-10.52-5.37-15.79c-0.28-0.84-0.74-1.14-1.67-1.13
				C181.92,251.56,177.46,251.54,173.03,251.54 M240.84,249.51c0.07-0.67,0.16-1.07,0.16-1.46c-0.01-2.99-0.1-5.98-0.01-8.96
				c0.03-0.99-0.38-1.51-1.08-2.02c-4.08-2.98-8.49-5.33-13.29-6.9c-3.61-1.19-7.2-2.67-11.15-1.75c-1.32,0.31-2.64,0.73-3.98,0.81
				c-2.47,0.14-2.88,0.84-3.18,3.46c-0.22,1.9-0.43,3.81-0.83,5.68c-0.24,1.14,0.32,1.68,1.09,2.17c4.27,2.69,8.58,5.33,12.83,8.06
				c1.42,0.92,2.85,1.38,4.56,1.21c2.07-0.2,4.15-0.25,6.22-0.28C235.04,249.47,237.91,249.51,240.84,249.51 M226.82,316.25
				c-3.54-3.11-6.8-6.01-10.11-8.85c-0.51-0.43-1.3-0.75-1.96-0.75c-6.18-0.03-12.36,0.05-18.54,0.01c-1.08,0-1.81,0.38-2.45,1.15
				c-1.68,1.99-3.37,3.96-5.07,5.94c-0.53,0.62-0.7,1.05,0.12,1.71c2.53,2.04,5.07,4.1,7.41,6.36c1.83,1.75,3.97,2.83,6.37,2.93
				c4.94,0.2,9.89,0.1,14.84,0.09c0.32,0,0.74-0.11,0.95-0.32C221.16,321.82,223.92,319.09,226.82,316.25 M173.64,250.09
				c0.6,0,1.25,0.01,1.91,0c3.69-0.06,7.39-0.1,11.09-0.23c0.82-0.03,1.73-0.21,2.43-0.61c5.39-3.15,10.75-6.37,16.1-9.59
				c0.3-0.18,0.6-0.57,0.65-0.89c0.38-2.7,0.72-5.41,1.01-8.12c0.04-0.36-0.19-1.04-0.43-1.11c-1.63-0.47-3.32-1.19-4.94-1.1
				c-2.05,0.12-4.09,0.86-6.08,1.49c-8.23,2.62-15.27,7.13-21.09,13.53c-0.28,0.31-0.61,0.73-0.63,1.11
				C173.61,246.32,173.64,248.08,173.64,250.09 M259.76,275.51c-0.11-1.29-0.31-3.46-0.46-5.63c-0.06-0.85-0.4-1.15-1.27-1.02
				c-1.1,0.17-2.23,0.13-3.31,0.36c-0.52,0.11-1.2,0.52-1.4,0.97c-2.53,5.62-5.03,11.27-7.44,16.94c-0.38,0.88-0.45,1.97-0.35,2.94
				c0.31,3.16,0.88,6.31,1.12,9.47c0.3,3.83,0.42,2.79,3.39,3.67c0.14,0.04,0.32-0.01,0.45,0.05c0.86,0.47,1.19-0.04,1.61-0.71
				C257.12,294.56,259.63,285.83,259.76,275.51 M250.16,304.96c-0.88-0.24-1.67-0.41-2.43-0.65c-0.99-0.31-1.81-0.13-2.66,0.5
				c-4.62,3.44-9.36,6.73-13.89,10.27c-3.43,2.68-6.63,5.65-9.93,8.49C228.73,324.22,248.32,311.32,250.16,304.96 M162.27,270.57
				l-0.41,0.04c-0.13,1.8-0.4,3.6-0.37,5.39c0.03,2.01,0.33,4.01,0.51,6.01c0.65,7.34,3.16,14.05,7.04,20.27
				c0.19,0.31,0.82,0.59,1.16,0.5c0.3-0.07,0.7-0.68,0.67-1.02c-0.13-1.35-0.4-2.67-0.62-4.01c-0.55-3.39-0.73-6.9-1.74-10.14
				C166.7,281.85,164.38,276.24,162.27,270.57 M171.07,304.09c-0.14,0.24-0.27,0.47-0.41,0.71c5.88,8.29,13.71,14.06,23.39,17.42
				c-2.64-2.35-5.44-4.5-8.18-6.72c-4.31-3.49-8.59-7.03-12.91-10.51C172.43,304.57,171.71,304.38,171.07,304.09"/>
			<path style="clip-path:url(#SVGID_00000036211717970459564490000006637600625999924891_);fill:#FFFFFF;" d="M205.17,305.13
				c-3.19,0-6.39,0.05-9.57-0.04c-0.57-0.01-1.36-0.43-1.64-0.9c-3-5.08-5.93-10.2-8.82-15.34c-0.19-0.35-0.04-1.05,0.18-1.45
				c3.01-5.37,6.07-10.72,9.11-16.07c0.48-0.84,1.03-1.32,2.14-1.27c5.72,0.26,11.44,0.4,17.15,0.65c0.52,0.02,1.21,0.34,1.49,0.75
				c2.54,3.83,5.02,7.71,7.51,11.57c0.96,1.48,2,2.91,2.83,4.46c0.28,0.54,0.27,1.52-0.05,2.04c-2.78,4.68-5.69,9.28-8.5,13.94
				c-0.69,1.14-1.4,1.74-2.85,1.67c-2.99-0.13-5.98-0.04-8.97-0.04V305.13z"/>
			<path style="clip-path:url(#SVGID_00000036211717970459564490000006637600625999924891_);fill:#FFFFFF;" d="M235.62,287.41
				c-2.28,0-4.56-0.07-6.84,0.03c-0.96,0.04-1.48-0.33-1.94-1.05c-3.37-5.26-6.77-10.51-10.09-15.8c-0.3-0.49-0.38-1.37-0.17-1.91
				c2.06-5.44,4.19-10.85,6.36-16.24c0.17-0.42,0.84-0.9,1.3-0.92c5.21-0.24,10.42-0.36,15.64-0.58c0.93-0.04,1.48,0.26,1.94,1.02
				c3.24,5.42,6.53,10.81,9.73,16.25c0.25,0.43,0.21,1.2,0,1.69c-2.23,5.31-4.52,10.6-6.8,15.89c-0.41,0.94-0.94,1.56-2.14,1.52
				c-2.33-0.09-4.66-0.03-6.99-0.03V287.41z"/>
			<path style="clip-path:url(#SVGID_00000036211717970459564490000006637600625999924891_);fill:#FFFFFF;" d="M173.03,251.53
				c4.43,0,8.88,0.03,13.34-0.03c0.92-0.01,1.38,0.29,1.67,1.13c1.78,5.26,3.61,10.52,5.37,15.79c0.16,0.46,0.15,1.14-0.08,1.55
				c-3.05,5.35-6.18,10.65-9.19,16.03c-0.43,0.78-0.89,0.83-1.54,0.78c-3.99-0.3-7.98-0.57-11.96-0.94c-0.42-0.04-1-0.51-1.16-0.92
				c-1.91-4.94-3.74-9.92-5.65-14.86c-0.38-0.97-0.17-1.7,0.3-2.53c2.8-4.92,5.57-9.86,8.35-14.79
				C172.62,252.48,172.73,252.2,173.03,251.53"/>
			<path style="clip-path:url(#SVGID_00000036211717970459564490000006637600625999924891_);fill:#FFFFFF;" d="M240.84,249.5
				c-2.93,0-5.8-0.03-8.68,0.01c-2.08,0.03-4.15,0.08-6.22,0.29c-1.71,0.16-3.13-0.3-4.56-1.21c-4.25-2.73-8.56-5.37-12.83-8.06
				c-0.77-0.49-1.33-1.04-1.09-2.18c0.4-1.87,0.61-3.78,0.83-5.68c0.3-2.62,0.72-3.31,3.18-3.46c1.34-0.08,2.66-0.5,3.98-0.81
				c3.96-0.92,7.54,0.56,11.15,1.75c4.8,1.58,9.21,3.92,13.28,6.91c0.71,0.52,1.11,1.03,1.08,2.02c-0.08,2.99,0,5.98,0.01,8.96
				C240.99,248.44,240.91,248.83,240.84,249.5"/>
			<path style="clip-path:url(#SVGID_00000036211717970459564490000006637600625999924891_);fill:#FFFFFF;" d="M226.82,316.25
				c-2.9,2.85-5.65,5.57-8.43,8.26c-0.22,0.22-0.63,0.32-0.96,0.32c-4.94,0-9.9,0.11-14.84-0.1c-2.4-0.1-4.54-1.17-6.37-2.93
				c-2.35-2.25-4.88-4.31-7.41-6.35c-0.83-0.66-0.65-1.09-0.13-1.71c1.7-1.98,3.39-3.95,5.07-5.94c0.65-0.77,1.37-1.15,2.45-1.15
				c6.18,0.03,12.36-0.04,18.54-0.01c0.66,0,1.45,0.32,1.96,0.75C220.02,310.23,223.27,313.13,226.82,316.25"/>
			<path style="clip-path:url(#SVGID_00000036211717970459564490000006637600625999924891_);fill:#FFFFFF;" d="M173.64,250.09
				c0-2.01-0.04-3.77,0.03-5.53c0.02-0.38,0.35-0.8,0.63-1.11c5.81-6.4,12.85-10.91,21.09-13.53c1.99-0.64,4.03-1.37,6.08-1.49
				c1.62-0.1,3.31,0.63,4.94,1.1c0.24,0.07,0.46,0.75,0.43,1.11c-0.29,2.71-0.63,5.42-1.01,8.12c-0.05,0.32-0.35,0.72-0.64,0.89
				c-5.35,3.22-10.71,6.44-16.11,9.59c-0.7,0.4-1.61,0.59-2.43,0.61c-3.69,0.13-7.39,0.16-11.09,0.23
				C174.9,250.1,174.25,250.09,173.64,250.09"/>
			<path style="clip-path:url(#SVGID_00000036211717970459564490000006637600625999924891_);fill:#FFFFFF;" d="M259.76,275.51
				c-0.13,10.32-2.64,19.05-7.66,27.05c-0.43,0.67-0.76,1.18-1.62,0.71c-0.12-0.07-0.31-0.01-0.45-0.05
				c-2.97-0.88-3.09,0.16-3.38-3.67c-0.24-3.17-0.81-6.31-1.12-9.47c-0.09-0.97-0.02-2.06,0.35-2.94
				c2.41-5.67,4.91-11.32,7.44-16.94c0.2-0.46,0.88-0.86,1.4-0.97c1.08-0.23,2.21-0.19,3.31-0.36c0.87-0.13,1.2,0.17,1.27,1.02
				C259.45,272.05,259.65,274.22,259.76,275.51"/>
			<path style="clip-path:url(#SVGID_00000036211717970459564490000006637600625999924891_);fill:#FFFFFF;" d="M250.16,304.96
				c-1.84,6.37-21.44,19.27-28.92,18.61c3.3-2.84,6.5-5.82,9.92-8.49c4.54-3.54,9.27-6.83,13.9-10.27c0.84-0.63,1.67-0.81,2.66-0.5
				C248.49,304.54,249.28,304.72,250.16,304.96"/>
			<path style="clip-path:url(#SVGID_00000036211717970459564490000006637600625999924891_);fill:#FFFFFF;" d="M162.27,270.57
				c2.11,5.68,4.43,11.28,6.25,17.05c1.02,3.24,1.19,6.75,1.75,10.14c0.22,1.34,0.49,2.67,0.61,4.01c0.03,0.34-0.37,0.94-0.67,1.02
				c-0.33,0.08-0.96-0.19-1.16-0.5c-3.88-6.22-6.39-12.92-7.04-20.27c-0.18-2-0.48-4.01-0.51-6.01c-0.03-1.8,0.24-3.6,0.37-5.4
				L162.27,270.57z"/>
			<path style="clip-path:url(#SVGID_00000036211717970459564490000006637600625999924891_);fill:#FFFFFF;" d="M171.07,304.09
				c0.64,0.3,1.36,0.48,1.89,0.91c4.32,3.48,8.59,7.02,12.91,10.51c2.74,2.21,5.53,4.37,8.18,6.72
				c-9.68-3.37-17.51-9.13-23.39-17.42C170.8,304.56,170.93,304.32,171.07,304.09"/>
		</g>
		<g style="clip-path:url(#SVGID_00000129910085208065166520000011021217823540603803_);">
			<text transform="matrix(-0.5905 -0.807 0.807 -0.5905 108.6122 381.4854)" class="st21 st22 st23">C</text>
		</g>
		<g style="clip-path:url(#SVGID_00000129910085208065166520000011021217823540603803_);">
			<text transform="matrix(-0.4416 -0.8972 0.8972 -0.4416 88.9414 354.8702)" class="st21 st22 st24">L</text>
		</g>
		<g style="clip-path:url(#SVGID_00000129910085208065166520000011021217823540603803_);">
			<text transform="matrix(-0.2721 -0.9623 0.9623 -0.2721 73.6865 324.3066)" class="st21 st22 st25">U</text>
		</g>
		<g style="clip-path:url(#SVGID_00000129910085208065166520000011021217823540603803_);">
			<text transform="matrix(-0.0877 -0.9961 0.9961 -0.0877 63.8422 290.1224)" class="st21 st22 st25">B</text>
		</g>
		<g style="clip-path:url(#SVGID_00000129910085208065166520000011021217823540603803_);">
			<text transform="matrix(0.0328 -0.9995 0.9995 0.0328 61.3503 252.9982)" class="st21 st22 st24"> </text>
		</g>
		<g style="clip-path:url(#SVGID_00000129910085208065166520000011021217823540603803_);">
			<text transform="matrix(0.1604 -0.9871 0.9871 0.1604 60.6602 243.0041)" class="st21 st22 st24">D</text>
		</g>
		<g style="clip-path:url(#SVGID_00000129910085208065166520000011021217823540603803_);">
			<text transform="matrix(0.35 -0.9368 0.9368 0.35 66.9772 204.2183)" class="st21 st22 st23">E</text>
		</g>
		<g style="clip-path:url(#SVGID_00000129910085208065166520000011021217823540603803_);">
			<text transform="matrix(0.5141 -0.8577 0.8577 0.5141 79.6659 170.2336)" class="st21 st22 st24">P</text>
		</g>
		<g style="clip-path:url(#SVGID_00000129910085208065166520000011021217823540603803_);">
			<text transform="matrix(0.6632 -0.7485 0.7485 0.6632 96.8273 141.018)" class="st21 st22 st24">O</text>
		</g>
		<g style="clip-path:url(#SVGID_00000129910085208065166520000011021217823540603803_);">
			<text transform="matrix(0.7959 -0.6055 0.6055 0.7959 121.8285 112.5906)" class="st21 st22 st26">R</text>
		</g>
		<g style="clip-path:url(#SVGID_00000129910085208065166520000011021217823540603803_);">
			<text transform="matrix(0.8935 -0.4491 0.4491 0.8935 152.1555 89.624)" class="st21 st22 st27">T</text>
		</g>
		<g style="clip-path:url(#SVGID_00000129910085208065166520000011021217823540603803_);">
			<text transform="matrix(0.9492 -0.3147 0.3147 0.9492 182.3765 74.816)" class="st21 st22 st24">I</text>
		</g>
		<g style="clip-path:url(#SVGID_00000129910085208065166520000011021217823540603803_);">
			<text transform="matrix(0.9837 -0.1797 0.1797 0.9837 203.3433 67.4612)" class="st21 st22 st23">V</text>
		</g>
		<g style="clip-path:url(#SVGID_00000129910085208065166520000011021217823540603803_);">
			<text transform="matrix(0.9999 -0.0162 0.0162 0.9999 233.8156 61.7375)" class="st21 st22 st23">O</text>
		</g>
		<g style="clip-path:url(#SVGID_00000129910085208065166520000011021217823540603803_);">
			<text transform="matrix(0.9928 0.1199 -0.1199 0.9928 271.9908 62.1713)" class="st21 st22 st24"> </text>
		</g>
		<g style="clip-path:url(#SVGID_00000129910085208065166520000011021217823540603803_);">
			<text transform="matrix(0.9702 0.2424 -0.2424 0.9702 281.9852 62.44)" class="st21 st22 st25">N</text>
		</g>
		<g style="clip-path:url(#SVGID_00000129910085208065166520000011021217823540603803_);">
			<text transform="matrix(0.9067 0.4217 -0.4217 0.9067 318.433 71.5115)" class="st21 st22 st23">U</text>
		</g>
		<g style="clip-path:url(#SVGID_00000129910085208065166520000011021217823540603803_);">
			<text transform="matrix(0.8128 0.5826 -0.5826 0.8128 350.8674 86.4462)" class="st21 st22 st26">E</text>
		</g>
		<g style="clip-path:url(#SVGID_00000129910085208065166520000011021217823540603803_);">
			<text transform="matrix(0.7002 0.7139 -0.7139 0.7002 380.2668 107.6649)" class="st21 st22 st27">V</text>
		</g>
		<g style="clip-path:url(#SVGID_00000129910085208065166520000011021217823540603803_);">
			<text transform="matrix(0.5771 0.8167 -0.8167 0.5771 402.1111 129.7974)" class="st21 st22 st23">A</text>
		</g>
		<g style="clip-path:url(#SVGID_00000129910085208065166520000011021217823540603803_);">
			<text transform="matrix(0.486 0.874 -0.874 0.486 419.8615 155.8396)" class="st21 st22 st24"> </text>
		</g>
		<g style="clip-path:url(#SVGID_00000129910085208065166520000011021217823540603803_);">
			<text transform="matrix(0.3725 0.928 -0.928 0.3725 425.5268 164.076)" class="st21 st22 st23">G</text>
		</g>
		<g style="clip-path:url(#SVGID_00000129910085208065166520000011021217823540603803_);">
			<text transform="matrix(0.1828 0.9832 -0.9832 0.1828 439.7885 199.22)" class="st21 st22 st23">R</text>
		</g>
		<g style="clip-path:url(#SVGID_00000129910085208065166520000011021217823540603803_);">
			<text transform="matrix(0.0162 0.9999 -0.9999 0.0162 446.3823 236.6961)" class="st21 st22 st23">A</text>
		</g>
		<g style="clip-path:url(#SVGID_00000129910085208065166520000011021217823540603803_);">
			<text transform="matrix(-0.1704 0.9854 -0.9854 -0.1704 447.1398 267.9168)" class="st21 st22 st25">N</text>
		</g>
		<g style="clip-path:url(#SVGID_00000129910085208065166520000011021217823540603803_);">
			<text transform="matrix(-0.3431 0.9393 -0.9393 -0.3431 440.5588 304.9271)" class="st21 st22 st25">A</text>
		</g>
		<g style="clip-path:url(#SVGID_00000129910085208065166520000011021217823540603803_);">
			<text transform="matrix(-0.5089 0.8608 -0.8608 -0.5089 430.31 334.3946)" class="st21 st22 st23">D</text>
		</g>
		<g style="clip-path:url(#SVGID_00000129910085208065166520000011021217823540603803_);">
			<text transform="matrix(-0.6559 0.7549 -0.7549 -0.6559 410.0889 368.0911)" class="st21 st22 st23">A</text>
		</g>
		<g style="clip-path:url(#SVGID_00000129910085208065166520000011021217823540603803_);">
			<defs>
				<rect id="SVGID_00000038394393141505256710000017579641993695722925_" x="-0.38" y="-0.1" width="508.82" height="508.26"/>
			</defs>
			<clipPath id="SVGID_00000109720463328335723900000013323737478406740659_">
				<use xlink:href="#SVGID_00000038394393141505256710000017579641993695722925_"  style="overflow:visible;"/>
			</clipPath>
			<path style="clip-path:url(#SVGID_00000109720463328335723900000013323737478406740659_);fill:#1B9DD9;" d="M173.63,443.38
				c0,6.36-5.16,11.52-11.52,11.52c-6.36,0-11.52-5.15-11.52-11.52c0-6.36,5.15-11.52,11.52-11.52
				C168.48,431.87,173.63,437.02,173.63,443.38"/>
			<path style="clip-path:url(#SVGID_00000109720463328335723900000013323737478406740659_);fill:#1B9DD9;" d="M265.55,462.79
				c0,6.36-5.16,11.52-11.52,11.52c-6.36,0-11.52-5.16-11.52-11.52c0-6.36,5.16-11.52,11.52-11.52
				C260.39,451.27,265.55,456.42,265.55,462.79"/>
			<path style="clip-path:url(#SVGID_00000109720463328335723900000013323737478406740659_);fill:#1B9DD9;" d="M355.28,443.38
				c0,6.36-5.16,11.52-11.52,11.52c-6.36,0-11.52-5.15-11.52-11.52c0-6.36,5.16-11.52,11.52-11.52
				C350.12,431.87,355.28,437.02,355.28,443.38"/>
		</g>
	</g>
</g>
</svg>
